<mxfile host="app.diagrams.net" modified="2021-12-06T19:23:42.369Z" agent="5.0 (Windows NT 10.0; Win64; x64) AppleWebKit/537.36 (KHTML, like Gecko) Chrome/96.0.4664.55 Safari/537.36 Edg/96.0.1054.43" etag="2hHW44oDfK2aa3MzaxeN" version="15.9.1" type="github">
  <diagram id="RBtCFe2Ba4LOhHzZDmpl" name="Page-1">
    <mxGraphModel dx="1422" dy="801" grid="1" gridSize="10" guides="1" tooltips="1" connect="1" arrows="1" fold="1" page="1" pageScale="1" pageWidth="850" pageHeight="1100" math="0" shadow="0">
      <root>
        <mxCell id="0" />
        <mxCell id="1" parent="0" />
        <mxCell id="fP_PVVz7lahyX5aB9z5u-12" style="edgeStyle=orthogonalEdgeStyle;curved=1;orthogonalLoop=1;jettySize=auto;html=1;exitX=1;exitY=0.5;exitDx=0;exitDy=0;fontSize=25;fontColor=#000000;" edge="1" parent="1" source="fP_PVVz7lahyX5aB9z5u-1" target="fP_PVVz7lahyX5aB9z5u-4">
          <mxGeometry relative="1" as="geometry" />
        </mxCell>
        <mxCell id="fP_PVVz7lahyX5aB9z5u-18" style="edgeStyle=orthogonalEdgeStyle;orthogonalLoop=1;jettySize=auto;html=1;exitX=0;exitY=0;exitDx=0;exitDy=0;entryX=0;entryY=0;entryDx=0;entryDy=0;fontSize=25;fontColor=#000000;curved=1;" edge="1" parent="1" source="fP_PVVz7lahyX5aB9z5u-1" target="fP_PVVz7lahyX5aB9z5u-3">
          <mxGeometry relative="1" as="geometry" />
        </mxCell>
        <mxCell id="fP_PVVz7lahyX5aB9z5u-1" value="" style="ellipse;whiteSpace=wrap;html=1;fillColor=#b0e3e6;strokeColor=#0e8088;" vertex="1" parent="1">
          <mxGeometry x="360" y="240" width="120" height="80" as="geometry" />
        </mxCell>
        <mxCell id="fP_PVVz7lahyX5aB9z5u-14" style="edgeStyle=orthogonalEdgeStyle;curved=1;orthogonalLoop=1;jettySize=auto;html=1;exitX=0;exitY=0.5;exitDx=0;exitDy=0;entryX=0.5;entryY=1;entryDx=0;entryDy=0;fontSize=25;fontColor=#000000;" edge="1" parent="1" source="fP_PVVz7lahyX5aB9z5u-2" target="fP_PVVz7lahyX5aB9z5u-3">
          <mxGeometry relative="1" as="geometry" />
        </mxCell>
        <mxCell id="fP_PVVz7lahyX5aB9z5u-2" value="" style="ellipse;whiteSpace=wrap;html=1;fillColor=#b0e3e6;strokeColor=#0e8088;" vertex="1" parent="1">
          <mxGeometry x="360" y="480" width="120" height="80" as="geometry" />
        </mxCell>
        <mxCell id="fP_PVVz7lahyX5aB9z5u-11" style="edgeStyle=orthogonalEdgeStyle;curved=1;orthogonalLoop=1;jettySize=auto;html=1;exitX=0.5;exitY=0;exitDx=0;exitDy=0;entryX=0;entryY=0.5;entryDx=0;entryDy=0;fontSize=25;fontColor=#000000;" edge="1" parent="1" source="fP_PVVz7lahyX5aB9z5u-3" target="fP_PVVz7lahyX5aB9z5u-1">
          <mxGeometry relative="1" as="geometry" />
        </mxCell>
        <mxCell id="fP_PVVz7lahyX5aB9z5u-20" style="edgeStyle=orthogonalEdgeStyle;curved=1;orthogonalLoop=1;jettySize=auto;html=1;exitX=0;exitY=0.5;exitDx=0;exitDy=0;fontSize=25;fontColor=#000000;entryX=0;entryY=0.5;entryDx=0;entryDy=0;" edge="1" parent="1" target="fP_PVVz7lahyX5aB9z5u-3">
          <mxGeometry relative="1" as="geometry">
            <mxPoint x="10" y="400" as="sourcePoint" />
          </mxGeometry>
        </mxCell>
        <mxCell id="fP_PVVz7lahyX5aB9z5u-3" value="" style="ellipse;whiteSpace=wrap;html=1;fillColor=#b0e3e6;strokeColor=#0e8088;" vertex="1" parent="1">
          <mxGeometry x="80" y="360" width="120" height="80" as="geometry" />
        </mxCell>
        <mxCell id="fP_PVVz7lahyX5aB9z5u-13" style="edgeStyle=orthogonalEdgeStyle;curved=1;orthogonalLoop=1;jettySize=auto;html=1;exitX=0.5;exitY=1;exitDx=0;exitDy=0;entryX=1;entryY=0.5;entryDx=0;entryDy=0;fontSize=25;fontColor=#000000;" edge="1" parent="1" source="fP_PVVz7lahyX5aB9z5u-4" target="fP_PVVz7lahyX5aB9z5u-2">
          <mxGeometry relative="1" as="geometry" />
        </mxCell>
        <mxCell id="fP_PVVz7lahyX5aB9z5u-19" style="edgeStyle=orthogonalEdgeStyle;curved=1;orthogonalLoop=1;jettySize=auto;html=1;exitX=0;exitY=0.5;exitDx=0;exitDy=0;entryX=1;entryY=0.5;entryDx=0;entryDy=0;fontSize=25;fontColor=#000000;" edge="1" parent="1" source="fP_PVVz7lahyX5aB9z5u-4" target="fP_PVVz7lahyX5aB9z5u-3">
          <mxGeometry relative="1" as="geometry" />
        </mxCell>
        <mxCell id="fP_PVVz7lahyX5aB9z5u-4" value="" style="ellipse;whiteSpace=wrap;html=1;fillColor=#b0e3e6;strokeColor=#0e8088;" vertex="1" parent="1">
          <mxGeometry x="640" y="360" width="120" height="80" as="geometry" />
        </mxCell>
        <mxCell id="fP_PVVz7lahyX5aB9z5u-5" value="&lt;span style=&quot;font-size: 14px&quot;&gt;&lt;b style=&quot;font-size: 25px&quot;&gt;&lt;font color=&quot;#000000&quot;&gt;T0&lt;/font&gt;&lt;/b&gt;&lt;/span&gt;" style="text;html=1;resizable=0;autosize=1;align=center;verticalAlign=middle;points=[];fillColor=none;strokeColor=none;rounded=0;" vertex="1" parent="1">
          <mxGeometry x="120" y="390" width="40" height="20" as="geometry" />
        </mxCell>
        <mxCell id="fP_PVVz7lahyX5aB9z5u-6" value="&lt;span style=&quot;font-size: 14px&quot;&gt;&lt;b style=&quot;font-size: 25px&quot;&gt;&lt;font color=&quot;#000000&quot;&gt;T3&lt;/font&gt;&lt;/b&gt;&lt;/span&gt;" style="text;html=1;resizable=0;autosize=1;align=center;verticalAlign=middle;points=[];fillColor=none;strokeColor=none;rounded=0;" vertex="1" parent="1">
          <mxGeometry x="400" y="510" width="40" height="20" as="geometry" />
        </mxCell>
        <mxCell id="fP_PVVz7lahyX5aB9z5u-7" value="&lt;font color=&quot;#000000&quot;&gt;&lt;span style=&quot;font-size: 25px&quot;&gt;&lt;b&gt;T1&lt;/b&gt;&lt;/span&gt;&lt;/font&gt;" style="text;html=1;resizable=0;autosize=1;align=center;verticalAlign=middle;points=[];fillColor=none;strokeColor=none;rounded=0;" vertex="1" parent="1">
          <mxGeometry x="400" y="270" width="40" height="20" as="geometry" />
        </mxCell>
        <mxCell id="fP_PVVz7lahyX5aB9z5u-8" value="&lt;span style=&quot;font-size: 14px&quot;&gt;&lt;b style=&quot;font-size: 25px&quot;&gt;&lt;font color=&quot;#000000&quot;&gt;T2&lt;/font&gt;&lt;/b&gt;&lt;/span&gt;" style="text;html=1;resizable=0;autosize=1;align=center;verticalAlign=middle;points=[];fillColor=none;strokeColor=none;rounded=0;" vertex="1" parent="1">
          <mxGeometry x="680" y="390" width="40" height="20" as="geometry" />
        </mxCell>
      </root>
    </mxGraphModel>
  </diagram>
</mxfile>
